<svg viewBox="0 0 50 50" xmlns="http://www.w3.org/2000/svg">
<g>
<path d="M10.6,18.3 L10.6,18.3 l-4.4,2.4 L5.5,18 l5.5,-2.9 h2.9 v25.1 h-3.3 V18.3 z" fill="black" stroke="black" stroke-width="0"/>
<path d="M39.8,27.4 c0,8.5,-3.2,13.3,-8.7,13.3 c-4.9,0,-8.2,-4.6,-8.3,-12.9 c0,-8.4,3.6,-13.1,8.7,-13.1 C36.8,14.7,39.8,19.4,39.8,27.4 z M26.1,27.8 c0,6.5,2,10.2,5.1,10.2 c3.5,0,5.1,-4.1,5.1,-10.5 c0,-6.2,-1.6,-10.2,-5.1,-10.2 C28.3,17.3,26.1,20.9,26.1,27.8 z" fill="black" stroke="black" stroke-width="0"/>
<path d="M48.3,13.7 c-0.9,3.2,-2.6,7.4,-3.6,9.2 l-2.2,0.3 c0.9,-2.3,1.9,-6.3,2.3,-9.1 L48.3,13.7 z" fill="black" stroke="black" stroke-width="0"/>
</g>
</svg>
