<?xml version="1.0" encoding="utf-8"?>
<!-- Generator: Adobe Illustrator 24.0.1, SVG Export Plug-In . SVG Version: 6.00 Build 0)  -->
<svg version="1.0" id="Calque_1" xmlns="http://www.w3.org/2000/svg" xmlns:xlink="http://www.w3.org/1999/xlink" x="0px" y="0px"
	 viewBox="0 0 49.1 47.7" style="enable-background:new 0 0 49.1 47.7;" xml:space="preserve">
<title>Taurusmod</title>
<path d="M10.1,11.4
c-0.6-1.3-1.4-2.6-2.4-3.6
c-1-1-2.2-1.8-3.5-2.3
C2.8,4.9,1.4,4.7,0,4.7
V0
c2,0,4.1,0.4,5.9,1.1
	C7.8,2,9.5,3.1,11,4.6
    c1.5,1.4,2.6,3.2,3.4,5.1
    c0.6,1.3,1.4,2.5,2.4,3.6
    c1,1,2.2,1.8,3.5,2.4
    c1.3,0.6,2.7,0.8,4.2,0.8
	c1.4,0,2.8-0.3,4.2-0.8
    c1.3-0.6,2.5-1.4,3.5-2.4
    c1-1,1.8-2.2,2.4-3.6
    c0.8-1.9,2-3.6,3.4-5.1
    c1.5-1.4,3.2-2.6,5.1-3.4
	C45,0.4,47,0,49.1,0
    v4.7
    c-1.4,0-2.8,0.3-4.2,0.8
    c-1.3,0.6-2.5,1.3-3.5,2.3
    c-1,1-1.8,2.2-2.4,3.6
    c-0.8,1.9-2,3.7-3.4,5.1
	c-0.9,0.8-1.8,1.6-2.8,2.2
    c1,0.6,2,1.4,2.8,2.2
    c3,2.9,4.6,6.9,4.6,11.1
    c0,2-0.4,4.1-1.2,5.9
    c-0.8,1.9-2,3.6-3.4,5.1
	c-1.5,1.4-3.2,2.6-5.1,3.4
    c-1.9,0.8-3.9,1.2-5.9,1.2
    c-2,0-4.1-0.3-5.9-1.2
    c-1.9-0.8-3.6-2-5.1-3.4

    c-1.5-1.5-2.6-3.2-3.4-5.1
	c-0.8-1.9-1.2-3.9-1.1-5.9
    c0-2.1,0.4-4.1,1.1-6
    c0.8-1.9,1.9-3.7,3.4-5.1
    c0.9-0.8,1.8-1.6,2.9-2.2
    c-1-0.6-2-1.4-2.9-2.2
	C12.1,15.1,10.9,13.3,10.1,11.4 M28.7,21.9c-2.7-1.1-5.7-1.1-8.3,0c-1.3,0.6-2.5,1.4-3.5,2.4c-1,1-1.8,2.2-2.4,3.6
	c-0.6,1.3-0.8,2.8-0.8,4.2c0,1.4,0.3,2.8,0.8,4.2c0.6,1.3,1.4,2.6,2.4,3.6c1,1,2.2,1.8,3.5,2.4c2.7,1.1,5.7,1.1,8.3,0
	c1.3-0.6,2.5-1.4,3.5-2.4c1-1,1.8-2.2,2.4-3.6c0.5-1.3,0.8-2.7,0.8-4.2c0-1.5-0.3-2.9-0.8-4.3c-0.6-1.3-1.4-2.5-2.4-3.6
	C31.2,23.3,30,22.5,28.7,21.9"/>
</svg>
